<?xml version="1.0" encoding="UTF-8"?>
<svg xmlns="http://www.w3.org/2000/svg" id="Ebene_1" data-name="Ebene 1" viewBox="0 0 311.6 162.4">
  <defs>
    <style>
      .cls-1 {
        fill: none;
      }

      .cls-2 {
        fill: #002a55;
      }
    </style>
  </defs>
  <g>
    <path class="cls-2" d="M183.7,83.1c1.9,0,2.3,0,3.2,.1,2.1,.3,3.7,1.2,4.8,2.9,.9,1.4,1.4,3.1,1.4,5,0,3.3-1.4,6-3.9,7.2-1.3,.7-2.3,.8-5.6,.8h-2v-16h2.1Zm.4,14.9h.9c2.4,0,3.8-.5,5-1.8,1.1-1.2,1.6-2.9,1.6-5.1,0-2.9-1.2-5.2-3.1-6.1-.8-.4-1.5-.5-2.9-.6h-2.6v13.6h1.1Z"/>
    <path class="cls-2" d="M197,93.6c.1,3.1,1.3,4.7,3.5,4.7,1.3,0,2.1-.5,2.8-1.9l1.2,.2c-.7,1.9-2.1,2.8-4,2.8-3,0-4.8-2.2-4.8-5.9,0-3.8,1.8-6.1,4.7-6.1,2.6,0,4.4,2.3,4.4,5.8v.4h-7.8Zm6.4-1c-.1-2.5-1.3-4-3.1-4-1.9,0-3.1,1.4-3.3,4h6.4Z"/>
    <path class="cls-2" d="M209,87.8v7.1c0,1.4,.1,2,.4,2.5,.4,.6,1.1,.9,2,.9,1.1,0,2-.5,2.5-1.4,.4-.6,.5-1.3,.5-2.6v-6.6h1.3v9.3c0,1.2,0,1.5,.3,2.1h-1.3c-.2-.6-.2-.9-.2-1.6-.6,1.3-1.5,1.9-2.9,1.9-1.6,0-2.8-.7-3.4-1.8-.3-.6-.4-1.2-.4-2.8v-7.1l1.2,.1h0Z"/>
    <path class="cls-2" d="M223.9,87.8v1h-2.9v7.4c0,.9,0,1.2,.2,1.5s.6,.5,1.1,.5,1.1-.1,1.7-.4v1.2c-.6,.2-1.2,.3-1.8,.3-1.7,0-2.4-.7-2.4-2.3v-2.1l.1-6.2h-1.7v-1h1.7l.1-3.3h1.2v3.3l2.7,.1h0Z"/>
    <path class="cls-2" d="M232.3,90.8c-.2-1.5-.9-2.2-2.6-2.2-1.4,0-2.3,.8-2.3,1.9,0,1,.5,1.4,2.6,2,1.9,.6,2.6,.9,3.1,1.4,.4,.5,.6,1.2,.6,2,0,2.1-1.5,3.5-4,3.5s-4-1.4-4-3.7h1.2c.2,1.7,1.1,2.6,2.8,2.6,1.6,0,2.6-.9,2.6-2.3,0-.6-.3-1.1-.7-1.4l-1-.5c-.2,0-.8-.2-1.6-.5-2.2-.7-3-1.5-3-3.1,0-1.8,1.5-3.1,3.7-3.1,2.3,0,3.6,1.2,3.7,3.3l-1.1,.1h0Z"/>
    <path class="cls-2" d="M243.6,91.5c-.3-1.9-1.3-2.9-2.8-2.9-2,0-3.4,2-3.4,5,0,2.9,1.4,4.8,3.5,4.8,1.6,0,2.6-1.1,2.8-3h1.3c-.3,2.7-1.7,4.1-4,4.1-3,0-4.8-2.3-4.8-6,0-3.5,1.9-6,4.7-6,2.4,0,3.8,1.4,4.1,4h-1.4Z"/>
    <path class="cls-2" d="M249.2,83v6.1c.9-1.2,1.8-1.7,3.3-1.7,1.4,0,2.5,.6,3.1,1.5,.4,.7,.5,1.3,.5,3.7v6.5h-1.3v-6.6c0-1.8-.1-2.3-.4-2.8-.4-.7-1.1-1.1-2.1-1.1-1.1,0-2.1,.5-2.6,1.5-.4,.7-.6,1.5-.6,2.7v6.4h-1.3v-16.2h1.4Z"/>
    <path class="cls-2" d="M264.5,92.6v1h-6.7v-1h6.7Z"/>
    <path class="cls-2" d="M189.6,121.7v1.2h-6.6v7.7h-1.4v-16.1h8.4v1.2h-7v6s6.6,0,6.6,0Z"/>
    <path class="cls-2" d="M193.8,119.2c.1,.6,.2,1.2,.2,1.8v.7c.8-2,1.7-2.8,2.9-2.8,.4,0,1,.1,1.5,.4v1.3c-.8-.3-1.1-.4-1.5-.4-.9,0-1.7,.7-2.3,1.9-.4,.8-.6,1.9-.6,3.5v5h-1.3v-7.3c0-2.7,0-2.8-.2-4.1h1.3Z"/>
    <path class="cls-2" d="M200.1,122.1c.2-2,1.7-3.2,4-3.2,1.9,0,3.2,.7,3.6,1.9,.1,.4,.2,.8,.2,1.5v6c0,.9,.1,1.6,.3,2.2h-1.3c-.2-.6-.2-.8-.3-1.6-.7,1.3-1.8,1.9-3.4,1.9-2.1,0-3.5-1.3-3.5-3.3,0-2.5,1.8-3.7,6.9-4.4v-.6c0-1.9-.7-2.6-2.6-2.6-1.5,0-2.4,.7-2.7,2l-1.2,.2h0Zm6.5,2.1c-4.2,.8-5.6,1.7-5.6,3.4,0,1.3,1,2.1,2.4,2.1,1.1,0,2.2-.6,2.7-1.5,.3-.6,.5-1.5,.5-2.8v-1.2h0Z"/>
    <path class="cls-2" d="M212.4,119.2c.2,.6,.2,.8,.2,1.7,.7-1.3,1.9-2,3.5-2,1.7,0,2.9,.7,3.3,1.9,.2,.5,.3,1,.3,1.7v8h-1.3v-6.9c0-1.5-.1-2-.3-2.6-.4-.7-1.1-1.1-2.1-1.1-1.1,0-2.1,.6-2.7,1.5-.4,.7-.6,1.4-.6,2.6v6.6h-1.3v-7.9c0-2.5,0-2.4-.3-3.5h1.3Z"/>
    <path class="cls-2" d="M230.4,119.2v.9l-6.9,9.5h6.7v1h-8.2v-1l6.8-9.4h-6.4v-1h8Z"/>
    <path class="cls-2" d="M241.6,124.9c0,3.6-1.9,6-4.8,6s-4.8-2.4-4.8-6,1.9-6,4.8-6,4.8,2.5,4.8,6Zm-8.3,0c0,2.9,1.4,4.8,3.5,4.8s3.5-2,3.5-4.8c0-2.9-1.4-4.9-3.5-4.9s-3.5,2-3.5,4.9Zm2.6-9.4c0,.7-.5,1.2-1.1,1.2-.7,0-1.2-.5-1.2-1.2,0-.6,.5-1.1,1.2-1.1,.6,0,1.1,.5,1.1,1.1Zm4.1,0c0,.7-.5,1.2-1.1,1.2s-1.2-.5-1.2-1.2c0-.6,.5-1.1,1.2-1.1,.6,0,1.1,.5,1.1,1.1Z"/>
    <path class="cls-2" d="M250.4,122.3c-.2-1.5-.9-2.2-2.6-2.2-1.4,0-2.3,.8-2.3,1.9,0,1,.5,1.4,2.6,2,1.9,.6,2.6,.9,3.1,1.4,.4,.5,.6,1.2,.6,2,0,2.1-1.5,3.5-4,3.5s-4-1.4-4-3.7h1.2c.2,1.7,1.1,2.6,2.8,2.6,1.6,0,2.6-.9,2.6-2.3,0-.6-.3-1.1-.7-1.4l-1-.5c-.2,0-.8-.2-1.6-.5-2.2-.7-3-1.5-3-3.1,0-1.8,1.5-3.1,3.7-3.1,2.3,0,3.6,1.2,3.7,3.3l-1.1,.1h0Z"/>
    <path class="cls-2" d="M256.5,115.4c0,.6-.5,1.1-1,1.1-.6,0-1.1-.4-1.1-1.1,0-.6,.5-1.1,1.1-1.1,.5,.1,1,.5,1,1.1h0Zm-.4,3.8v11.4h-1.4v-11.4s1.4,0,1.4,0Z"/>
    <path class="cls-2" d="M265.6,122.3c-.2-1.5-.9-2.2-2.6-2.2-1.4,0-2.3,.8-2.3,1.9,0,1,.5,1.4,2.6,2,1.9,.6,2.6,.9,3.1,1.4,.4,.5,.6,1.2,.6,2,0,2.1-1.5,3.5-4,3.5s-4-1.4-4-3.7h1.2c.2,1.7,1.1,2.6,2.8,2.6,1.6,0,2.6-.9,2.6-2.3,0-.6-.3-1.1-.7-1.4-.2-.1-.6-.3-1-.5-.2,0-.8-.2-1.6-.5-2.2-.7-3-1.5-3-3.1,0-1.8,1.5-3.1,3.7-3.1,2.3,0,3.6,1.2,3.7,3.3l-1.1,.1h0Z"/>
    <path class="cls-2" d="M276.8,122.9c-.3-1.9-1.3-2.9-2.8-2.9-2,0-3.4,2-3.4,5,0,2.9,1.4,4.8,3.5,4.8,1.6,0,2.6-1.1,2.8-3h1.3c-.3,2.7-1.7,4.1-4,4.1-3,0-4.8-2.3-4.8-6,0-3.5,1.9-6,4.7-6,2.4,0,3.8,1.4,4.1,4-.1,0-1.4,0-1.4,0Z"/>
    <path class="cls-2" d="M282.4,114.5v6.1c.9-1.2,1.8-1.7,3.3-1.7,1.4,0,2.5,.6,3.1,1.5,.4,.7,.5,1.3,.5,3.7v6.5h-1.3v-6.6c0-1.8-.1-2.3-.4-2.8-.4-.7-1.1-1.1-2.1-1.1-1.1,0-2.1,.5-2.6,1.5-.4,.7-.6,1.5-.6,2.7v6.4h-1.3v-16.1l1.4-.1h0Z"/>
    <path class="cls-2" d="M293.5,125.1c.1,3.1,1.3,4.7,3.5,4.7,1.3,0,2.1-.5,2.8-1.9l1.2,.2c-.7,1.9-2.1,2.8-4,2.8-3,0-4.8-2.2-4.8-5.9,0-3.8,1.8-6.1,4.7-6.1,2.6,0,4.4,2.3,4.4,5.8v.4h-7.8Zm6.5-1.1c-.1-2.5-1.3-4-3.1-4-1.9,0-3.1,1.4-3.3,4h6.4Z"/>
    <path class="cls-2" d="M310.2,122.3c-.2-1.5-.9-2.2-2.6-2.2-1.4,0-2.3,.8-2.3,1.9,0,1,.5,1.4,2.6,2,1.9,.6,2.6,.9,3.1,1.4,.4,.5,.6,1.2,.6,2,0,2.1-1.5,3.5-4,3.5s-4-1.4-4-3.7h1.2c.2,1.7,1.1,2.6,2.8,2.6,1.6,0,2.6-.9,2.6-2.3,0-.6-.3-1.1-.7-1.4-.2-.1-.6-.3-1-.5-.2,0-.8-.2-1.6-.5-2.2-.7-3-1.5-3-3.1,0-1.8,1.5-3.1,3.7-3.1,2.3,0,3.6,1.2,3.7,3.3l-1.1,.1h0Z"/>
    <path class="cls-2" d="M181.6,162.1v-16.1h1.4v16.1h-1.4Z"/>
    <path class="cls-2" d="M187.9,150.7c.2,.6,.2,.8,.2,1.7,.7-1.4,1.9-2,3.5-2,1.7,0,2.9,.7,3.3,1.9,.2,.5,.3,1,.3,1.7v8h-1.3v-6.9c0-1.5-.1-2-.3-2.6-.4-.7-1.1-1.1-2.1-1.1-1.1,0-2.1,.6-2.7,1.5-.4,.6-.6,1.4-.6,2.6v6.6h-1.3v-7.9c0-2.5,0-2.4-.3-3.5h1.3Z"/>
    <path class="cls-2" d="M204.6,153.7c-.2-1.5-.9-2.2-2.6-2.2-1.4,0-2.3,.8-2.3,1.9,0,1,.5,1.4,2.6,2,1.9,.6,2.6,.9,3.1,1.4,.4,.5,.6,1.2,.6,2,0,2.1-1.5,3.5-4,3.5s-4-1.4-4-3.7h1.2c.2,1.7,1.1,2.6,2.8,2.6,1.6,0,2.6-.9,2.6-2.3,0-.6-.3-1.1-.7-1.4-.2-.1-.6-.3-1-.5-.2,0-.8-.2-1.6-.5-2.2-.7-3-1.5-3-3.1,0-1.8,1.5-3.1,3.7-3.1,2.3,0,3.6,1.2,3.7,3.3l-1.1,.1h0Z"/>
    <path class="cls-2" d="M213.6,150.7v1h-2.9l-.1,6.2v1.2c0,.9,0,1.2,.2,1.5s.6,.5,1.1,.5,1.1-.1,1.7-.4v1.2c-.6,.2-1.2,.3-1.8,.3-1.7,0-2.4-.6-2.4-2.3v-2.1l.1-6.2h-1.7v-1h1.7l.1-3.3h1.2v3.3l2.8,.1h0Z"/>
    <path class="cls-2" d="M217.9,146.9c0,.6-.5,1.1-1,1.1-.6,0-1.1-.4-1.1-1.1,0-.6,.5-1.1,1.1-1.1s1,.5,1,1.1h0Zm-.4,3.8v11.4h-1.4v-11.4h1.4Z"/>
    <path class="cls-2" d="M225.8,150.7v1h-2.8l-.1,6.2v1.2c0,.9,0,1.2,.2,1.5s.6,.5,1.1,.5,1.1-.1,1.7-.4v1.2c-.6,.2-1.2,.3-1.8,.3-1.7,0-2.4-.6-2.4-2.3v-2.1l.1-6.2h-1.8v-1h1.7l.1-3.3h1.2v3.3l2.8,.1h0Z"/>
    <path class="cls-2" d="M229.6,150.7v7.1c0,1.4,.1,2,.4,2.5,.4,.6,1.1,.9,2,.9,1.1,0,2-.5,2.5-1.4,.4-.6,.5-1.3,.5-2.6v-6.6h1.3v9.3c0,1.2,0,1.5,.3,2.1h-1.3c-.2-.6-.2-.9-.2-1.6-.6,1.3-1.5,1.9-2.9,1.9-1.6,0-2.8-.7-3.4-1.8-.3-.6-.4-1.2-.4-2.8v-7.1l1.2,.1h0Z"/>
    <path class="cls-2" d="M244.5,150.7v1h-2.9l-.1,6.2v1.2c0,.9,0,1.2,.2,1.5s.6,.5,1.1,.5,1.1-.1,1.7-.4v1.2c-.6,.2-1.2,.3-1.8,.3-1.7,0-2.4-.6-2.4-2.3v-2.1l.1-6.2h-1.7v-1h1.7l.1-3.3h1.2v3.3l2.8,.1h0Z"/>
  </g>
  <path class="cls-2" d="M81,46h-12.2v-2.2h12.2v-8.8C81,18,90.7,0,110.7,0c7.8,0,18.4,2.7,18.4,12.6,0,4.5-2.6,7.3-6.8,7.3-3.5,0-6.2-2.6-6.2-6.1,0-6.3,7.4-4.6,7.4-7.3,0-1.9-4.9-4.3-11.1-4.3-17,0-20.1,8.4-20.1,22.1v19.6h24.2c4.3,0,8.6-.3,11.3-3v56.2h10.8v2.2h-32v-2.2h9.9V46h-24.2v51h10.4v2.2h-33.9v-2.2h12.2V46h0Z"/>
  <path class="cls-2" d="M45.8,89.4h-.3c-2,4.6-8.4,11.5-17.7,11.5-16.9-.1-27.8-14.2-27.8-30,0-13.2,10.7-30,26.9-30,9.7,0,16.2,7.4,18.6,13.8h.3V5.5h-10.8V3.4h10.8c4.3,0,8.6-.3,11.3-3.4V97.1h8v2.2h-19.3v-9.9h0Zm0-25.4c0-9.9-7.7-20.9-18.9-20.9-11.9,0-13.9,9.3-13.9,27.8,0,20.1,1.6,27.8,14.9,27.8,9.2,0,18.1-7.7,18-18.9l-.1-15.8h0Z"/>
  <rect class="cls-1" width="311.6" height="162.4"/>
</svg>