<?xml version="1.0" encoding="UTF-8"?>
<svg xmlns="http://www.w3.org/2000/svg" id="Ebene_1" data-name="Ebene 1" viewBox="0 0 311.6 100.9">
  <defs>
    <style>
      .cls-1 {
        fill: none;
      }

      .cls-2 {
        fill: #002a55;
      }
    </style>
  </defs>
  <path class="cls-2" d="M81,46h-12.2v-2.2h12.2v-8.8C81,18,90.7,0,110.7,0c7.8,0,18.4,2.7,18.4,12.6,0,4.5-2.6,7.3-6.8,7.3-3.5,0-6.2-2.6-6.2-6.1,0-6.3,7.4-4.6,7.4-7.3,0-1.9-4.9-4.3-11.1-4.3-17,0-20.1,8.4-20.1,22.1v19.6h24.2c4.3,0,8.6-.3,11.3-3v56.2h10.8v2.2h-32v-2.2h9.9V46h-24.2v51h10.4v2.2h-33.9v-2.2h12.2V46h0Z"></path>
  <path class="cls-2" d="M45.8,89.4h-.3c-2,4.6-8.4,11.5-17.7,11.5-16.9-.1-27.8-14.2-27.8-30,0-13.2,10.7-30,26.9-30,9.7,0,16.2,7.4,18.6,13.8h.3V5.5h-10.8V3.4h10.8c4.3,0,8.6-.3,11.3-3.4V97.1h8v2.2h-19.3v-9.9h0Zm0-25.4c0-9.9-7.7-20.9-18.9-20.9-11.9,0-13.9,9.3-13.9,27.8,0,20.1,1.6,27.8,14.9,27.8,9.2,0,18.1-7.7,18-18.9l-.1-15.8h0Z"></path>
  <rect class="cls-1" width="311.6" height="100.9"></rect>
</svg>
